<svg width="24" height="24" viewBox="0 0 24 24" fill="none" xmlns="http://www.w3.org/2000/svg">
<g clip-path="url(#clip0_160_24)">
<path d="M23.7938 15.4977C23.7936 15.4979 23.7934 15.4982 23.7931 15.4984L20.1192 19.1546C19.8439 19.4285 19.3988 19.4275 19.1248 19.1522C18.8508 18.877 18.8519 18.4318 19.1271 18.1579L21.5938 15.7031H6.70312C6.31479 15.7031 6 15.3883 6 15C6 14.6117 6.31479 14.2969 6.70312 14.2969H21.5938L19.1272 11.8421C18.8519 11.5682 18.8509 11.123 19.1248 10.8478C19.3988 10.5725 19.844 10.5715 20.1192 10.8454L23.7932 14.5016C23.7934 14.5018 23.7936 14.5021 23.7938 14.5023C24.0692 14.7771 24.0683 15.2238 23.7938 15.4977Z" fill="#337D5A"/>
</g>
<defs>
<clipPath id="clip0_160_24">
<rect width="18" height="18" fill="white" transform="matrix(1 0 0 -1 6 24)"/>
</clipPath>
</defs>
</svg>
