<svg width="24" height="24" viewBox="0 0 24 24" fill="none" xmlns="http://www.w3.org/2000/svg">
<g clip-path="url(#clip0_314_435)">
<path d="M23.7938 15.4976C23.7936 15.4978 23.7934 15.4981 23.7931 15.4983L20.1192 19.1546C19.8439 19.4285 19.3988 19.4274 19.1248 19.1522C18.8508 18.8769 18.8519 18.4317 19.1271 18.1578L21.5938 15.703H6.70312C6.31479 15.703 6 15.3883 6 14.9999C6 14.6116 6.31479 14.2968 6.70312 14.2968H21.5938L19.1272 11.842C18.8519 11.5681 18.8509 11.1229 19.1248 10.8477C19.3988 10.5724 19.844 10.5714 20.1192 10.8453L23.7932 14.5015C23.7934 14.5018 23.7936 14.502 23.7938 14.5022C24.0692 14.7771 24.0683 15.2237 23.7938 15.4976Z" fill="#1A2F3F"/>
</g>
<defs>
<clipPath id="clip0_314_435">
<rect width="18" height="18" fill="white" transform="matrix(1 0 0 -1 6 24)"/>
</clipPath>
</defs>
</svg>
