<svg width="16" height="17" viewBox="0 0 16 17" fill="none" xmlns="http://www.w3.org/2000/svg">
<g clip-path="url(#clip0_64_46)">
<path d="M4.15384 16.9995C3.96421 16.9997 3.81048 16.8454 3.81048 16.6558C3.81048 15.7905 3.80889 14.9236 3.81207 14.0583C3.81207 13.9598 3.77873 13.9028 3.68667 13.8705C3.51048 13.8073 3.33588 13.7381 3.15651 13.6811C2.09143 13.3454 1.3581 12.6464 0.843814 11.7072C0.562862 11.1914 0.39302 10.6386 0.262862 10.072C0.0517506 9.15432 -0.0212653 8.22434 0.00413152 7.28511C0.0215918 6.67846 0.0723855 6.07489 0.166036 5.47594C0.239052 5.00325 0.305719 4.52748 0.415243 4.06094C0.672385 2.97082 1.28508 2.10089 2.20889 1.43727C2.77556 1.03078 3.40572 0.745936 4.07238 0.533455C4.61683 0.359467 5.17715 0.245528 5.74381 0.159304C6.55175 0.0361267 7.36445 -0.0208427 8.18032 0.00533242C8.67873 0.0222693 9.17873 0.0576828 9.67556 0.105414C10.3819 0.173161 11.0819 0.284021 11.7692 0.461088C12.4279 0.630457 13.0549 0.873732 13.6311 1.23095C14.6327 1.84991 15.2549 2.73217 15.5597 3.83768C15.7517 4.53364 15.8787 5.24191 15.9438 5.95941C16.0137 6.72773 16.0152 7.49605 15.9676 8.26591C15.939 8.72166 15.9025 9.17588 15.8216 9.62548C15.6644 10.5016 15.3978 11.3407 14.9375 12.1137C14.5898 12.6957 14.093 13.1376 13.493 13.4717C12.9692 13.7627 12.4041 13.949 11.8184 14.0768C11.3549 14.1784 10.8867 14.2385 10.4137 14.2754C9.34857 14.3555 8.2835 14.3878 7.21524 14.4155C7.18032 14.4171 7.13429 14.4309 7.11207 14.4556C6.4708 15.1361 5.78508 15.7751 5.10731 16.4202C4.91683 16.6019 4.72477 16.7836 4.52953 16.9622C4.50731 16.9838 4.46921 16.9976 4.43746 16.9976C4.34317 16.999 4.24888 16.9995 4.15384 16.9995ZM4.57221 15.8052C4.57017 15.8332 4.6058 15.8497 4.62477 15.829C4.85175 15.6134 5.08191 15.4025 5.30572 15.1823C5.71683 14.7789 6.12477 14.3724 6.52953 13.9613C6.71207 13.7766 6.93111 13.6826 7.18984 13.6734C7.9454 13.6441 8.70096 13.621 9.45492 13.5918C10.0756 13.5671 10.6946 13.524 11.3073 13.4193C11.9041 13.3177 12.4803 13.1576 13.0184 12.882C13.6184 12.5756 14.0851 12.1383 14.3898 11.5486C14.7486 10.8542 14.9756 10.1182 15.0946 9.34987C15.1867 8.75092 15.2216 8.14735 15.2343 7.54378C15.2533 6.71541 15.2025 5.89013 15.0581 5.07254C14.9787 4.62448 14.8819 4.18104 14.7359 3.74992C14.4978 3.04473 14.0835 2.45964 13.4644 2.0162C12.9692 1.66207 12.4168 1.42033 11.8311 1.24634C11.3406 1.10161 10.8391 1.00769 10.3343 0.932241C9.81207 0.855255 9.28826 0.795207 8.76286 0.764412C8.01365 0.719761 7.26445 0.727459 6.51683 0.805985C5.93429 0.866034 5.3581 0.953797 4.79143 1.09699C4.09778 1.27098 3.44064 1.52503 2.83746 1.90534C1.95651 2.46118 1.38191 3.23104 1.1581 4.22877C1.05493 4.68761 0.988258 5.15568 0.915242 5.62068C0.827941 6.18883 0.780322 6.76007 0.766036 7.33284C0.746989 8.02879 0.788258 8.72166 0.907306 9.40838C0.991433 9.89031 1.10413 10.3661 1.27556 10.8265C1.47715 11.3638 1.75969 11.8534 2.1835 12.2584C2.48032 12.5417 2.81207 12.7727 3.21365 12.902C3.45334 12.979 3.68826 13.0729 3.92477 13.1637C4.09778 13.23 4.2581 13.3177 4.37873 13.4609C4.52477 13.6334 4.57238 13.8351 4.57238 14.0537C4.57238 14.6373 4.57238 15.2193 4.57238 15.8028C4.57232 15.8036 4.57226 15.8044 4.57221 15.8052Z" fill="white"/>
<path d="M10.4191 12.1946C10.2746 12.193 10.0968 12.1499 9.92541 12.0791C8.71906 11.5833 7.60001 10.9459 6.59525 10.1267C5.63334 9.34302 4.83017 8.42688 4.16667 7.39219C3.77937 6.79017 3.48414 6.1481 3.22858 5.48603C3.17937 5.35977 3.11271 5.23813 3.08731 5.10726C2.96826 4.49137 3.20318 4.01252 3.71271 3.64915C3.93652 3.49055 4.19048 3.39201 4.46191 3.33812C4.72223 3.28577 4.94287 3.37354 5.13017 3.54444C5.50001 3.8801 5.81906 4.25733 6.08414 4.67614C6.20794 4.87014 6.32064 5.07184 6.42699 5.27509C6.58572 5.57841 6.53017 5.83554 6.26667 6.06188C6.16667 6.14657 6.06033 6.22509 5.95874 6.30824C5.61112 6.59616 5.53175 6.88255 5.70001 7.29519C5.9508 7.91416 6.34287 8.43612 6.8635 8.86878C7.26191 9.19982 7.70953 9.4508 8.19366 9.64172C8.53652 9.77722 8.83493 9.6525 9.04445 9.36149C9.14128 9.226 9.24128 9.09666 9.38255 9.00274C9.64287 8.83029 9.92064 8.83029 10.2064 8.92883C10.3984 8.99504 10.5683 9.10282 10.7302 9.21984C11.1032 9.48929 11.481 9.75566 11.8492 10.0313C12.0206 10.1591 12.1492 10.3223 12.1825 10.5394C12.2048 10.6949 12.1651 10.8412 12.1032 10.9828C11.8873 11.4663 11.5254 11.8143 11.0381 12.0406C10.7889 12.1622 10.654 12.1946 10.4191 12.1946Z" fill="white"/>
<path d="M8.46349 2.58521C9.62063 2.59136 10.673 3.02864 11.5111 3.92322C12.0762 4.52833 12.4127 5.24275 12.5254 6.05265C12.5921 6.5238 12.5698 6.99341 12.4651 7.45841C12.4254 7.63547 12.3048 7.74787 12.1381 7.76173C11.9619 7.77559 11.7984 7.68628 11.7349 7.54155C11.7 7.45995 11.7048 7.3768 11.7222 7.29212C11.9238 6.32825 11.7444 5.4383 11.1413 4.64534C10.5889 3.92014 9.83968 3.49364 8.91905 3.35968C8.5 3.29809 8.08571 3.32427 7.67143 3.41049C7.46825 3.45207 7.28571 3.33043 7.24127 3.1318C7.19365 2.92702 7.30159 2.7438 7.50476 2.69452C7.79048 2.6237 8.08095 2.59444 8.46349 2.58521Z" fill="white"/>
<path d="M11.4 6.20355C11.4403 6.48035 11.4295 6.76322 11.3917 7.04038C11.3884 7.06474 11.3848 7.08915 11.381 7.11352C11.3492 7.31368 11.1778 7.42762 10.9587 7.40299C10.7556 7.37989 10.6159 7.22284 10.6302 7.02576C10.6397 6.89026 10.6651 6.75477 10.6667 6.61773C10.6778 5.65387 10.0397 4.80857 9.08889 4.52834C8.75397 4.4298 8.41111 4.4067 8.06508 4.46521C7.70952 4.5268 7.55079 4.21578 7.62064 3.98328C7.66191 3.84932 7.75873 3.76618 7.89841 3.74308C8.9381 3.57987 9.8381 3.85702 10.581 4.58069C11.0413 5.02875 11.3095 5.57688 11.4 6.20355Z" fill="white"/>
<path d="M8.4127 4.80547C9.33651 4.81779 10.1381 5.50296 10.2619 6.3806C10.2778 6.49608 10.2889 6.61618 10.2746 6.73012C10.2492 6.9272 10.0794 7.0396 9.86032 7.02266C9.66826 7.0088 9.52699 6.86561 9.52381 6.67469C9.52222 6.44373 9.46667 6.22817 9.33175 6.03724C9.10159 5.71236 8.78095 5.55069 8.3746 5.54299C8.21111 5.53992 8.08413 5.47525 8.02381 5.32435C7.96349 5.17192 7.98413 5.02873 8.10159 4.90709C8.19048 4.81933 8.30159 4.79931 8.4127 4.80547Z" fill="white"/>
</g>
<defs>
<clipPath id="clip0_64_46">
<rect width="16" height="17" fill="white"/>
</clipPath>
</defs>
</svg>
