<svg xmlns="http://www.w3.org/2000/svg" width="22" height="22" fill="none" viewBox="0 0 22 22"><path fill="#fff" d="M15.813 12.719v-8.25c0-.569-.463-1.032-1.032-1.032H1.031A1.034 1.034 0 0 0 0 4.47v8.25c0 .568.463 1.031 1.031 1.031h13.75c.569 0 1.031-.463 1.031-1.031m-15.125 0V4.47c0-.19.154-.344.343-.344h13.75c.19 0 .344.154.344.344v8.25c0 .19-.154.344-.344.344H1.031a.344.344 0 0 1-.343-.344"/><path fill="#fff" d="M20.969 8.25h-4.125a.344.344 0 1 0 0 .688h4.125c.19 0 .343.154.343.343V11h-4.468a.344.344 0 1 0 0 .688h4.468v5.843c0 .19-.154.344-.343.344H7.219a.344.344 0 0 1-.344-.344v-2.75a.344.344 0 0 0-.687 0v2.75c0 .569.462 1.032 1.03 1.032h13.75c.57 0 1.032-.463 1.032-1.032v-8.25c0-.568-.463-1.031-1.031-1.031m-13.75 2.406H5.5a.344.344 0 0 0 0 .688h1.719a.344.344 0 0 0 0-.688m-3.094 0H2.406a.344.344 0 0 0 0 .688h1.719a.344.344 0 0 0 0-.688"/><path fill="#fff" d="M13.406 10.656h-1.719a.344.344 0 0 0 0 .688h1.72a.344.344 0 0 0 0-.688m-3.094 0h-1.72a.344.344 0 0 0 0 .688h1.72a.344.344 0 0 0 0-.688m-6.532-5.5H2.75c-.569 0-1.031.463-1.031 1.032v.343c0 .569.462 1.032 1.031 1.032h1.031c.569 0 1.031-.463 1.031-1.032v-.343c0-.57-.462-1.032-1.03-1.032m.344 1.375c0 .19-.154.344-.344.344H2.75a.344.344 0 0 1-.344-.344v-.343c0-.19.154-.344.344-.344h1.031c.19 0 .344.154.344.343zm8.593-1.375c-.41 0-.78.181-1.031.467a1.37 1.37 0 0 0-1.032-.467c-.758 0-1.375.617-1.375 1.375s.617 1.375 1.375 1.375c.41 0 .78-.18 1.031-.467a1.377 1.377 0 0 0 2.406-.908c0-.758-.616-1.375-1.374-1.375M10.656 7.22a.688.688 0 1 1 .002-1.377.688.688 0 0 1-.002 1.377m2.063 0a.688.688 0 1 1 .001-1.377.688.688 0 0 1-.001 1.377m4.125 3.093h3.781a.344.344 0 0 0 0-.688h-3.781a.344.344 0 1 0 0 .688m2.75 4.125h-6.532a.344.344 0 0 0 0 .687h6.532a.344.344 0 0 0 0-.687m0 1.375h-4.125a.344.344 0 1 0 0 .687h4.125a.344.344 0 0 0 0-.687"/></svg>