<svg xmlns="http://www.w3.org/2000/svg" width="43" height="43" fill="none" viewBox="0 0 43 43"><g fill="#C4C4C4" clip-path="url(#a)"><path d="M17.916 30.47h1.433v1.433h-1.433zm1.434 1.433h1.432v1.433H19.35zm12.9-1.433h1.433v1.433h-1.434zm-1.434 1.433h1.433v1.433h-1.433zm-22.216 0h1.432v1.433H8.6zm1.433-1.433h1.433v1.433h-1.433zm4.3-8.6h1.433v1.433h-1.433zm1.433-1.434H17.2v1.433h-1.433zm12.184.717h1.433v1.433H27.95zm9.316 0H38.7v1.433h-1.433z"/><path d="M40.133 32.813V17.569a10.05 10.05 0 0 0-8.616-9.924c.005-.089.015-.175.015-.264V6.103a.717.717 0 0 0-.716-.717h-1.278a5.17 5.17 0 0 0-4.632 2.884 4.99 4.99 0 0 0-4.672-2.135 7.88 7.88 0 0 0-6.617-3.615v1.433a6.44 6.44 0 0 1 5.146 2.58 4.99 4.99 0 0 0-2.701 6.267L3.33 17.616a.71.71 0 0 0-.452.67h-.011v14.527C.947 33.564 0 34.44 0 35.486c0 3.968 14.064 5.017 21.5 5.017S43 39.455 43 35.486c0-1.046-.947-1.922-2.867-2.673M4.3 25.073c.481-.001.943.189 1.284.528a3.253 3.253 0 0 0 4.597 0 1.82 1.82 0 0 1 2.57 0 3.253 3.253 0 0 0 4.597 0 1.82 1.82 0 0 1 2.57 0 3.253 3.253 0 0 0 4.596 0 1.82 1.82 0 0 1 2.57 0 3.25 3.25 0 0 0 4.597 0 1.82 1.82 0 0 1 2.57 0 3.225 3.225 0 0 0 4.45.121v1.9a3.1 3.1 0 0 0-.966.649 1.68 1.68 0 0 1-2.371 0l-.2-.2a3.116 3.116 0 0 0-4.398 0l-.198.198a1.68 1.68 0 0 1-2.37 0l-.2-.2a3.116 3.116 0 0 0-4.399 0l-.198.199a1.68 1.68 0 0 1-2.37 0l-.2-.2a3.115 3.115 0 0 0-4.399 0l-.197.199a1.68 1.68 0 0 1-2.371 0l-.2-.2a3.116 3.116 0 0 0-4.398 0l-.198.198a1.68 1.68 0 0 1-2.37 0l-.2-.2a3.1 3.1 0 0 0-2.198-.9zm34.4-1.099c-.32.156-.613.363-.866.614a1.82 1.82 0 0 1-2.57 0 3.25 3.25 0 0 0-4.595-.002l-.001.002a1.82 1.82 0 0 1-2.57 0 3.253 3.253 0 0 0-4.597 0 1.82 1.82 0 0 1-2.57 0 3.253 3.253 0 0 0-4.597 0 1.82 1.82 0 0 1-2.57 0 3.253 3.253 0 0 0-4.596 0 1.82 1.82 0 0 1-2.57 0 3.25 3.25 0 0 0-2.298-.95v-4.635h3.287l2.032 2.032a2.616 2.616 0 0 0 3.696 0l2.032-2.032h2.99l2.032 2.032a2.616 2.616 0 0 0 3.695 0l2.033-2.032h2.99l2.032 2.032a2.616 2.616 0 0 0 3.696 0l2.032-2.032H38.7zM4.3 28.6a1.67 1.67 0 0 1 1.184.485l.199.2a3.116 3.116 0 0 0 4.4 0l.197-.198a1.68 1.68 0 0 1 2.37 0l.2.2a3.115 3.115 0 0 0 4.399 0l.197-.199a1.68 1.68 0 0 1 2.371 0l.2.2a3.115 3.115 0 0 0 4.398 0l.198-.198a1.68 1.68 0 0 1 2.37 0l.2.2a3.116 3.116 0 0 0 4.4 0l.197-.2a1.68 1.68 0 0 1 2.37 0l.2.2a3.104 3.104 0 0 0 4.35.034v5.447H4.3zm27.102-17.784 1.021 1.021-1.021 1.021a2.857 2.857 0 0 1-4.038 0l-1.022-1.02 1.022-1.022a2.857 2.857 0 0 1 4.038 0M29.538 6.82h.562v.561c0 .414-.07.825-.205 1.215a4.26 4.26 0 0 0-3.544 1.206l-.528.527a3.73 3.73 0 0 1 3.715-3.51m-10.034.963a6.4 6.4 0 0 1 .563 2.62v.716H21.5v-.716a7.8 7.8 0 0 0-.541-2.849 3.576 3.576 0 1 1-1.454.229m-2.766 6.292a5.005 5.005 0 0 0 8.704-1.11l.907.906a4.293 4.293 0 0 0 6.064 0l1.53-1.528a.717.717 0 0 0 0-1.014l-1.528-1.527a4.2 4.2 0 0 0-1.016-.73 8.62 8.62 0 0 1 7.3 8.499h-2.15a.72.72 0 0 0-.507.21l-2.242 2.242a1.18 1.18 0 0 1-1.668 0L29.89 17.78a.72.72 0 0 0-.507-.21H25.8a.72.72 0 0 0-.507.21l-2.242 2.242a1.18 1.18 0 0 1-1.668 0L19.14 17.78a.72.72 0 0 0-.507-.21H15.05a.72.72 0 0 0-.507.21l-2.242 2.242a1.18 1.18 0 0 1-1.668 0L8.39 17.78a.72.72 0 0 0-.507-.21h-.38zM21.5 39.07c-12.984 0-20.067-2.365-20.067-3.584 0-.185.335-.615 1.434-1.12v1.12c0 .396.32.717.716.717h35.834a.717.717 0 0 0 .716-.717v-1.12c1.1.503 1.434.932 1.434 1.12 0 1.219-7.083 3.584-20.067 3.584"/></g><defs><clipPath id="a"><path fill="#fff" d="M0 0h43v43H0z"/></clipPath></defs></svg>