<svg xmlns="http://www.w3.org/2000/svg" width="45" height="45" fill="none"><g fill="#C4C4C4" clip-path="url(#a)"><path d="M10.5 30.75a2.25 2.25 0 1 0 0 4.5 2.25 2.25 0 0 0 0-4.5m0 3a.75.75 0 1 1 0-1.5.75.75 0 0 1 0 1.5m24-3a2.25 2.25 0 1 0 0 4.5 2.25 2.25 0 0 0 0-4.5m0 3a.75.75 0 1 1 0-1.5.75.75 0 0 1 0 1.5"/><path d="m44.428 20.074-5.166-5.818a2.25 2.25 0 0 0-1.687-.756H30.75V9a2.25 2.25 0 0 0-2.25-2.25H2.25A2.25 2.25 0 0 0 0 9v19.5a.75.75 0 0 0 .75.75h.75v2.25a2.25 2.25 0 0 0 2.25 2.25h1.56a5.243 5.243 0 0 0 10.38 0h13.62a5.243 5.243 0 0 0 10.38 0h3.06A2.25 2.25 0 0 0 45 31.5v-9.93c0-.552-.204-1.084-.572-1.496M1.5 27.75V9a.75.75 0 0 1 .75-.75H28.5a.75.75 0 0 1 .75.75v18.75zm3.81 4.5H3.75A.75.75 0 0 1 3 31.5v-2.25h3.833a5.24 5.24 0 0 0-1.523 3m5.19 4.5a3.75 3.75 0 1 1 0-7.5 3.75 3.75 0 0 1 0 7.5m7.5-4.5h-2.31a5.24 5.24 0 0 0-1.523-3H18zm6.75 0H19.5v-3h5.25zm4.56 0h-3.06v-3h4.583a5.24 5.24 0 0 0-1.523 3m5.19 4.5a3.75 3.75 0 1 1 0-7.5 3.75 3.75 0 0 1 0 7.5m9-5.25a.75.75 0 0 1-.75.75h-3.06a5.254 5.254 0 0 0-5.19-4.5h-3.75V15h3v7.5A2.25 2.25 0 0 0 36 24.75h7.5zm0-8.25H36a.75.75 0 0 1-.75-.75V15h2.325c.215-.001.42.09.564.25l5.169 5.821a.75.75 0 0 1 .192.499z"/><g clip-path="url(#b)"><path d="M19.623 12.857a92 92 0 0 1-1.041-1.319.29.29 0 0 0-.287-.107s-1.262.25-1.65.311c-3.242.516-5.34 2.163-6.415 5.034-1.499 4.003 1.47 7.09 3.316 7.78s6.111.313 7.61-3.69c1.07-2.858.568-5.478-1.533-8.009M13.751 24.01c-1.661-.622-4.33-3.408-2.975-7.029.995-2.658 2.944-4.183 5.961-4.663.303-.048 1.13-.209 1.495-.28.228.293.747.956.942 1.192 1.957 2.355 2.426 4.786 1.436 7.432-1.384 3.695-5.412 3.89-6.86 3.348"/><path d="M20.37 19.636a2.03 2.03 0 0 0-.457-2.137q.045-.091.08-.184a2.044 2.044 0 0 0-1.196-2.628 2 2 0 0 0-.285-.08c-.111-.02-.237-.095-.263-.238-.09-.497-.227-1.08-.227-1.08-.044-.19-.296-.284-.455-.17-.019.014-.47.34-.844.668-.116.102-.268.073-.372.013a2 2 0 0 0-.286-.136 2.044 2.044 0 0 0-2.688 1.388 2.03 2.03 0 0 0-1.748 1.312c-.19.508-.165 1.07.065 1.566a2 2 0 0 0-.132.277 2.04 2.04 0 0 0 .486 2.167 2.03 2.03 0 0 0 1.292 2.236q.426.16.89.116.323.338.749.498a2.034 2.034 0 0 0 2.442-.839 2.04 2.04 0 0 0 1.79-1.315q.052-.138.082-.295c.5-.223.887-.63 1.077-1.14m-6.23 2.5a1.4 1.4 0 0 1-.596-.072c-.693-.26-1.077-1-.894-1.723.008-.029 0-.057-.002-.086.015-.022.032-.042.042-.068q.087-.236.247-.425a.292.292 0 1 0-.448-.375q-.128.157-.224.337a1.45 1.45 0 0 1-.157-1.312c.037-.098.089-.195.163-.304a.29.29 0 0 0 .011-.308 1.45 1.45 0 0 1-.107-1.231 1.44 1.44 0 0 1 1.135-.918c.03.798.53 1.54 1.324 1.838a.292.292 0 1 0 .204-.547 1.46 1.46 0 0 1 1.023-2.731q.104.039.195.093c.346.202.754.174 1.043-.073zm4.795-1.846a.29.29 0 0 0-.193.24 1.5 1.5 0 0 1-.078.336 1.45 1.45 0 0 1-.978.886 2.04 2.04 0 0 0-.676-2.003.291.291 0 1 0-.376.447c.471.396.642 1.05.438 1.6l-.084.17a1.45 1.45 0 0 1-1.805.711 1.4 1.4 0 0 1-.496-.337l2.973-7.943.015.077a.89.89 0 0 0 .727.706q.096.018.19.053a1.46 1.46 0 0 1 .855 1.877 1.5 1.5 0 0 1-.145.281 1.45 1.45 0 0 1-.551.503.292.292 0 1 0 .267.519c.21-.108.393-.253.551-.421.335.397.44.943.255 1.44-.15.4-.474.713-.89.858"/></g></g><defs><clipPath id="a"><path fill="#fff" d="M0 0h45v45H0z"/></clipPath><clipPath id="b"><path fill="#fff" d="m11.898 8.99 13.112 4.908-4.908 13.112L6.99 22.102z"/></clipPath></defs></svg>