<svg xmlns="http://www.w3.org/2000/svg" width="36" height="36" fill="none" viewBox="0 0 36 36"><path fill="#C4C4C4" d="M34.512 7.35 18.199 1.161a.56.56 0 0 0-.398 0L1.488 7.349a.56.56 0 0 0-.363.526v20.25a.56.56 0 0 0 .361.525L17.8 34.917a.56.56 0 0 0 .4 0l16.313-6.21a.56.56 0 0 0 .363-.526V7.875a.56.56 0 0 0-.363-.526M18 2.288l14.727 5.586L18 13.461l-4.474-1.697 7.002-2.651a.562.562 0 0 0 0-1.052l-4.196-1.592a.56.56 0 0 0-.4 0L7.748 9.572 3.273 7.875zm-9.562 8.748 2.812 1.069v8.401L8.438 19.43zm.895-.864 6.8-2.58 2.609.99-6.802 2.58zM2.25 8.69l5.063 1.92v9.207a.56.56 0 0 0 .361.525l3.938 1.508a.563.563 0 0 0 .763-.526V12.53l5.063 1.92v19.122L2.25 27.74zm16.313 24.885V14.45L33.75 8.69v19.104z"/><path fill="#C4C4C4" d="m23.987 28.136-3.383 1.287a.563.563 0 1 0 .4 1.052l3.383-1.288a.563.563 0 1 0-.4-1.051m3.372-1.284-1.133.431a.562.562 0 1 0 .4 1.051l1.133-.43a.563.563 0 1 0-.4-1.052m-3.372-.966-3.383 1.287a.563.563 0 1 0 .4 1.052l3.383-1.288a.563.563 0 1 0-.4-1.051m3.372-1.284-1.133.431a.562.562 0 1 0 .4 1.051l1.133-.43a.563.563 0 1 0-.4-1.052m-3.372-.966-3.383 1.287a.563.563 0 1 0 .4 1.052l3.383-1.288a.563.563 0 1 0-.4-1.051m3.372-1.284-1.133.431a.562.562 0 1 0 .4 1.051l1.133-.43a.563.563 0 1 0-.4-1.052"/></svg>