<svg xmlns="http://www.w3.org/2000/svg" width="37" height="37" fill="none" viewBox="0 0 37 37"><g fill="#C4C4C4" clip-path="url(#a)"><path d="m36.387 17.771-.002-.042-.002-.013-.006-.039-.002-.015-.026-.083-.008-.021-.025-.049-.006-.01-2.09-3.485v-2.631c0-.3-.243-.542-.543-.542H22.921a6.3 6.3 0 0 0 1.903-4.517A6.33 6.33 0 0 0 18.5 0a6.33 6.33 0 0 0-6.323 6.324c0 1.768.73 3.368 1.903 4.517H3.324c-.3 0-.542.242-.542.542v2.63L.69 17.499l-.005.008-.016.03-.009.02-.012.028-.008.022-.019.076-.005.031-.003.054v.039A2.708 2.708 0 0 0 5.491 19.4a2.708 2.708 0 0 0 4.337 0 2.707 2.707 0 0 0 4.336 0 2.708 2.708 0 0 0 4.336 0 2.708 2.708 0 0 0 4.336 0 2.708 2.708 0 0 0 4.337 0 2.708 2.708 0 0 0 4.336 0 2.708 2.708 0 0 0 4.877-1.592v-.016l.001-.016zM13.26 6.324c0-2.89 2.35-5.24 5.24-5.24a5.246 5.246 0 0 1 5.239 5.24c0 2.889-2.35 5.24-5.24 5.24a5.246 5.246 0 0 1-5.24-5.24m-9.938 13.08a1.63 1.63 0 0 1-1.532-1.085h3.065a1.63 1.63 0 0 1-1.533 1.084m1.818-2.169H2.113l1.518-2.529h2.648zm2.519 2.168c-.707 0-1.31-.453-1.533-1.084h3.066a1.63 1.63 0 0 1-1.533 1.084m1.765-2.168H6.33l1.138-2.529h2.715zm2.57 2.168a1.63 1.63 0 0 1-1.532-1.084h3.066a1.63 1.63 0 0 1-1.533 1.084m1.702-2.168h-3.14l.758-2.529h2.762zm2.635 2.168a1.63 1.63 0 0 1-1.533-1.084h3.066a1.63 1.63 0 0 1-1.533 1.084m1.626-2.168h-3.165l.38-2.529h2.785zm2.71 2.168a1.63 1.63 0 0 1-1.532-1.084H22.2a1.63 1.63 0 0 1-1.533 1.084m-1.626-2.168v-2.529h2.786l.379 2.529zm-8.132-3.613H3.867v-1.697h11.702a6.3 6.3 0 0 0 2.932.722 6.3 6.3 0 0 0 2.933-.722h11.702v1.697H10.911m12.014 1.084h2.761l.759 2.529h-3.14zm2.08 4.697a1.63 1.63 0 0 1-1.532-1.084h3.065a1.63 1.63 0 0 1-1.532 1.084m1.813-4.697h2.715l1.139 2.529h-3.095zm2.524 4.697a1.63 1.63 0 0 1-1.533-1.084h3.066a1.63 1.63 0 0 1-1.533 1.084m1.38-4.697h2.649l1.518 2.529h-3.029zm2.956 4.697a1.63 1.63 0 0 1-1.533-1.084h3.066a1.63 1.63 0 0 1-1.533 1.084m-.002 2.241c-.3 0-.542.242-.542.542v13.73h-1.807V22.727a.54.54 0 0 0-.542-.542H23.56c-.3 0-.542.243-.542.542v13.19H21.21V34.29c0-.3-.242-.542-.542-.542h-.18v-.181a.542.542 0 1 0-1.084 0v.18h-1.085v-.18a.542.542 0 1 0-1.084 0v.18h-1.084v-.18a.542.542 0 1 0-1.084 0v.18h-1.084v-.18a.542.542 0 1 0-1.084 0v.18h-1.084v-.18a.542.542 0 1 0-1.084 0v.18H9.647v-.18a.542.542 0 1 0-1.084 0v.18H7.48v-.18a.542.542 0 1 0-1.084 0v.18h-.181c-.3 0-.542.243-.542.542v1.627H3.865V22.185a.542.542 0 1 0-1.084 0v14.273c0 .3.243.542.542.542h30.354c.3 0 .542-.243.542-.542V22.185c0-.3-.243-.542-.542-.542m-13.55 14.273H6.755v-1.084h13.37zm10.117 0h-6.143V23.268h6.143z"/><path d="M20.668 22.184H6.214c-.3 0-.542.243-.542.542v7.95c0 .3.243.542.542.542h14.454c.3 0 .542-.243.542-.542v-7.95c0-.3-.243-.542-.542-.542m-.542 7.95H6.756v-6.866h13.37zm8.492-.723h-2.89a.542.542 0 1 0 0 1.084h2.89a.542.542 0 1 0 0-1.084M21.566 9.13l-.358-4.297a.54.54 0 0 0-.54-.497h-.542v-.542c0-.897-.73-1.626-1.626-1.626s-1.626.73-1.626 1.626v.542h-.542a.54.54 0 0 0-.54.488L15.36 9.16a.54.54 0 0 0 .54.596h5.132a.542.542 0 0 0 .535-.627m-3.608-5.336a.543.543 0 0 1 1.084 0v.542h-1.084zm-1.46 4.878.325-3.252h3.346l.271 3.252z"/></g><defs><clipPath id="a"><path fill="#fff" d="M0 0h37v37H0z"/></clipPath></defs></svg>