<svg xmlns="http://www.w3.org/2000/svg" width="16" height="17" fill="none"><g fill="#fff" clip-path="url(#a)"><path d="M4.154 17a.344.344 0 0 1-.344-.344q-.001-1.298.002-2.598c0-.098-.033-.155-.125-.187-.177-.064-.351-.133-.53-.19-1.066-.336-1.799-1.035-2.313-1.974-.281-.516-.451-1.068-.581-1.635a11 11 0 0 1-.259-2.787c.018-.607.068-1.21.162-1.81.073-.472.14-.948.25-1.414.256-1.09.87-1.96 1.793-2.624.567-.406 1.197-.691 1.863-.904A11 11 0 0 1 5.744.16C6.552.036 7.364-.02 8.18.005q.75.027 1.496.1a13.6 13.6 0 0 1 2.093.356c.659.17 1.286.413 1.862.77 1.002.619 1.624 1.501 1.929 2.607q.287 1.045.384 2.121c.07.769.071 1.537.024 2.307-.029.456-.066.91-.146 1.36-.158.876-.424 1.715-.884 2.488-.348.582-.845 1.024-1.445 1.358a6 6 0 0 1-1.675.605c-.463.101-.931.162-1.404.198-1.065.08-2.13.113-3.199.14a.17.17 0 0 0-.103.04c-.641.681-1.327 1.32-2.005 1.965q-.285.274-.577.542a.14.14 0 0 1-.093.036zm.418-1.195c-.002.028.034.045.053.024.227-.216.457-.427.68-.647q.618-.605 1.225-1.22a.94.94 0 0 1 .66-.289c.755-.029 1.511-.052 2.265-.081a14 14 0 0 0 1.852-.173c.597-.101 1.173-.261 1.711-.537.6-.306 1.067-.744 1.372-1.333a7.1 7.1 0 0 0 .705-2.2 14 14 0 0 0 .14-1.805 12.5 12.5 0 0 0-.177-2.471 9 9 0 0 0-.322-1.323 3.42 3.42 0 0 0-1.272-1.734c-.495-.354-1.047-.596-1.633-.77-.49-.144-.992-.238-1.497-.314A18 18 0 0 0 8.763.764a14 14 0 0 0-2.246.042c-.583.06-1.159.148-1.726.291a6.7 6.7 0 0 0-1.954.808c-.88.556-1.455 1.326-1.679 2.324-.103.459-.17.927-.243 1.392q-.13.853-.149 1.712a10.5 10.5 0 0 0 .141 2.075c.084.482.197.958.369 1.418.201.538.484 1.027.908 1.432.296.284.628.515 1.03.644.24.077.474.17.71.262.174.066.334.154.455.297.146.172.193.374.193.593z"/><path d="M10.42 12.195a1.4 1.4 0 0 1-.495-.116c-1.206-.496-2.325-1.133-3.33-1.952a11.5 11.5 0 0 1-2.428-2.735c-.388-.602-.683-1.244-.938-1.906-.05-.126-.116-.248-.142-.379-.119-.616.116-1.094.626-1.458a1.9 1.9 0 0 1 .749-.31c.26-.053.48.035.668.205q.556.504.954 1.132.185.293.343.6c.159.302.103.56-.16.786-.1.085-.207.163-.308.246-.348.288-.427.575-.259.987.25.62.643 1.141 1.164 1.574.398.33.846.582 1.33.773.343.135.64.01.85-.28a1.4 1.4 0 0 1 .339-.36c.26-.172.538-.172.823-.073.192.066.362.174.524.29.373.27.751.537 1.12.812.17.128.3.291.332.508a.8.8 0 0 1-.079.444c-.216.483-.578.831-1.065 1.058-.25.121-.384.154-.619.154m-1.956-9.61c1.158.006 2.21.444 3.048 1.338.565.605.902 1.32 1.014 2.13q.099.706-.06 1.405c-.04.177-.16.29-.327.304-.176.014-.34-.076-.403-.22a.4.4 0 0 1-.013-.25c.202-.964.022-1.854-.58-2.647-.553-.725-1.302-1.151-2.223-1.285a3.5 3.5 0 0 0-1.248.05.36.36 0 0 1-.43-.278.35.35 0 0 1 .264-.437c.285-.071.576-.1.958-.11"/><path d="M11.4 6.204a3 3 0 0 1-.019.91c-.032.2-.203.314-.422.289-.203-.023-.343-.18-.329-.377.01-.136.035-.271.037-.408.01-.964-.627-1.81-1.578-2.09a2.26 2.26 0 0 0-1.024-.063c-.355.062-.514-.25-.444-.482a.33.33 0 0 1 .277-.24c1.04-.163 1.94.114 2.683.838.46.448.729.996.819 1.623"/><path d="M8.413 4.805c.924.013 1.725.698 1.849 1.576.016.115.027.235.013.35-.026.196-.196.309-.415.292a.35.35 0 0 1-.336-.348 1.1 1.1 0 0 0-.192-.638c-.23-.325-.551-.486-.957-.494-.164-.003-.29-.068-.351-.219a.37.37 0 0 1 .078-.417.4.4 0 0 1 .31-.102"/></g><defs><clipPath id="a"><path fill="#fff" d="M0 0h16v17H0z"/></clipPath></defs></svg>